<?xml version="1.0" encoding="iso-8859-1"?>
<!-- Generator: Adobe Illustrator 19.0.0, SVG Export Plug-In . SVG Version: 6.00 Build 0)  -->
<svg version="1.1" id="Layer_1" xmlns="http://www.w3.org/2000/svg" xmlns:xlink="http://www.w3.org/1999/xlink" x="0px" y="0px"
	 viewBox="0 0 511.995 511.995" style="enable-background:new 0 0 511.995 511.995;" xml:space="preserve">
<g>
	<g>
		<rect x="74.064" y="414.141" width="14.762" height="11.729"/>
	</g>
</g>
<g>
	<g>
		<path d="M477.19,340.514h32.039l-24.532-55.833c-0.875-29.119-24.818-52.542-54.146-52.542c-2.429,0-4.817,0.177-7.163,0.488
			c-15.846-63.876-67.543-112.17-130.815-124.886c12.72-9.925,20.923-25.383,20.923-42.73c0-29.875-24.309-54.179-54.188-54.179
			s-54.188,24.304-54.188,54.179c0,17.357,8.212,32.821,20.943,42.746c-27.077,5.442-52.637,17.46-74.13,35.151
			c-28.361,23.345-48.455,55.476-56.998,90.932c-4.315-1.109-8.835-1.701-13.491-1.701c-29.879,0-54.187,24.308-54.187,54.187
			c0,18.827,9.656,35.435,24.271,45.152c-30.078,11.945-51.409,41.318-51.409,75.599v57.349h162.651v-52.13
			c28.197,19.61,61.934,30.272,96.539,30.272c32.241,0,63.036-8.904,89.919-25.866v47.724h162.651v-57.349
			C511.876,379.576,498.144,355.239,477.19,340.514z M479.5,309.549l7.119,16.202h-18.951
			C472.549,321.153,476.584,315.67,479.5,309.549z M430.551,325.751c-19.216,0-35.255-13.822-38.721-32.044h77.444
			C465.806,311.929,449.768,325.751,430.551,325.751z M444.65,342.03l-14.1,16.163l-14.099-16.163
			c4.548-0.985,9.262-1.518,14.099-1.518C435.388,340.514,440.102,341.045,444.65,342.03z M393.435,325.751h-16.981l5.769-14.963
			C385.08,316.41,388.887,321.467,393.435,325.751z M430.551,246.901c19.217,0,35.256,13.822,38.722,32.044h-16.036v-12.612h-14.762
			v12.612H391.83C395.296,260.722,411.336,246.901,430.551,246.901z M259.307,25.595c19.216,0,35.256,13.818,38.723,32.035h-24.332
			l-7.01-7.903v-12.93h-14.762v12.666l-8.193,8.167h-23.148C224.051,39.412,240.09,25.595,259.307,25.595z M220.583,72.391h29.249
			l9.144-9.113l8.083,9.113h30.971c-3.467,18.223-19.507,32.045-38.723,32.045S224.05,90.615,220.583,72.391z M273.406,120.72
			l-14.099,16.163l-14.099-16.163c4.548-0.985,9.262-1.517,14.099-1.517C264.144,119.203,268.859,119.735,273.406,120.72z
			 M230.167,125.935l21.759,24.943v32.017h14.762v-32.016l21.759-24.943c22.137,10.826,37.422,33.574,37.422,59.832v42.587h-18.012
			v-40.24h-14.762v40.24h-67.578v-40.24h-14.762v40.24h-18.012v-42.587C192.744,159.508,208.03,136.76,230.167,125.935z
			 M81.442,246.9c20.626,0,37.591,15.924,39.277,36.119c-21.733-1.227-35.927-7.71-43.261-12.154
			c1.786-2.505,2.631-4.187,2.746-4.424l-13.252-6.505c-0.284,0.561-6.309,11.997-24.405,19.976
			C45.619,261.214,61.887,246.9,81.442,246.9z M43.125,295.584c10.542-3.875,18.382-8.922,24.069-13.732
			c8.274,5.541,25.263,14.239,51.988,15.866c-4.9,16.202-19.962,28.034-37.74,28.034C62.892,325.751,47.303,312.87,43.125,295.584z
			 M95.542,342.03l-14.099,16.163L67.344,342.03c4.548-0.985,9.262-1.518,14.099-1.518C86.28,340.514,90.994,341.046,95.542,342.03z
			 M148.005,449.663h-18.012v-40.239h-14.762v40.239H47.654v-40.239H32.892v40.239H14.879v-42.587
			c0-26.256,15.286-49.005,37.423-59.831l21.759,24.943v32.017h14.762v-32.017l21.759-24.943
			c22.138,10.826,37.423,33.574,37.423,59.831V449.663z M259.307,427.805c-35.664,0-70.314-12.409-97.813-34.97
			c-4.971-28.015-24.321-51.107-50.135-61.359c14.615-9.716,24.271-26.324,24.271-45.152c0-19.922-10.814-37.355-26.873-46.77
			c11.029-49.128,45.39-88.655,89.826-107.805c-12.801,14.375-20.6,33.298-20.6,54.016v57.349h162.651v-57.349
			c0-20.77-7.836-39.736-20.694-54.124c43.642,18.701,77.464,57.027,89.216,104.909c-18.842,8.13-32.172,26.653-32.754,48.305
			l-21.459,55.659h28.971c-18.77,13.191-31.743,34.092-34.242,58.075C323.271,417.713,292.11,427.805,259.307,427.805z
			 M479.101,449.663v-40.239h-14.762v40.239h-67.577v-40.239H382v40.239h-18.013v-42.587c0-26.256,15.286-49.005,37.422-59.831
			l21.759,24.943v32.016h14.762v-32.016l21.759-24.943c22.137,10.826,37.422,33.573,37.422,59.831v42.587H479.101z"/>
	</g>
</g>
<g>
	<g>
		<rect x="423.172" y="414.141" width="14.762" height="11.729"/>
	</g>
</g>
<g>
	<g>
		<rect x="251.93" y="192.835" width="14.762" height="11.73"/>
	</g>
</g>
<g>
	<g>
		<rect x="153.731" y="89.144" width="14.762" height="16.592"/>
	</g>
</g>
<g>
	<g>
		<rect x="475.854" y="160.24" width="14.762" height="16.592"/>
	</g>
</g>
<g>
	<g>
		<rect x="276.435" y="464.146" width="14.762" height="16.592"/>
	</g>
</g>
<g>
	<g>
		<rect x="115.231" y="495.402" width="14.762" height="16.593"/>
	</g>
</g>
<g>
	<g>
		<rect x="371.445" y="482.362" width="14.762" height="16.592"/>
	</g>
</g>
<g>
	<g>
		<rect x="373.866" y="57.701" width="14.762" height="16.592"/>
	</g>
</g>
<g>
	<g>
		<rect x="450.64" width="14.762" height="16.592"/>
	</g>
</g>
<g>
	<g>
		<rect x="46.714" y="21.595" width="14.762" height="16.592"/>
	</g>
</g>
<g>
	<g>
		<rect x="43.742" y="146.373" width="14.762" height="16.593"/>
	</g>
</g>
<g>
</g>
<g>
</g>
<g>
</g>
<g>
</g>
<g>
</g>
<g>
</g>
<g>
</g>
<g>
</g>
<g>
</g>
<g>
</g>
<g>
</g>
<g>
</g>
<g>
</g>
<g>
</g>
<g>
</g>
</svg>
